<svg width="1328" height="203" viewBox="0 0 1328 203" fill="none" xmlns="http://www.w3.org/2000/svg">
<path d="M1260.13 203C1217.57 203 1188.92 172.124 1188.92 125.671C1188.92 81.9997 1218.68 50.011 1259.29 50.011C1303.24 50.011 1332.45 85.6157 1327.44 133.46H1217.57C1219.79 163.501 1234.81 181.025 1259.57 181.025C1280.43 181.025 1294.9 169.621 1299.63 150.427H1327.44C1320.21 183.251 1294.9 203 1260.13 203ZM1258.74 71.1513C1236.21 71.1513 1220.91 87.2847 1217.85 114.823H1297.68C1296.29 87.5629 1281.55 71.1513 1258.74 71.1513Z" fill="#E7F3F3"/>
<path d="M1179.97 200.218H1151.59V0.498169H1179.97V200.218Z" fill="#E7F3F3"/>
<path d="M1142.58 126.505C1142.58 170.733 1116.99 203 1077.21 203C1056.35 203 1038.55 192.43 1027.98 173.793V200.218H1001.83V0.498169H1029.92V78.1053C1040.22 60.0248 1057.18 50.011 1077.21 50.011C1116.71 50.011 1142.58 81.7214 1142.58 126.505ZM1113.37 126.505C1113.37 93.126 1095.85 74.7674 1071.65 74.7674C1048.28 74.7674 1029.92 92.8479 1029.92 125.949C1029.92 158.494 1047.73 177.965 1071.65 177.965C1095.85 177.965 1113.37 159.329 1113.37 126.505Z" fill="#E7F3F3"/>
<path d="M960.373 200.218V177.409C951.194 193.821 934.782 203 913.086 203C882.488 203 862.46 185.476 862.46 158.494C862.46 129.565 885.548 114.545 929.497 114.545C938.12 114.545 945.074 114.823 957.035 116.214V105.365C957.035 84.2249 945.631 72.264 926.159 72.264C905.575 72.264 893.058 84.5031 892.223 105.087H866.633C868.023 71.9858 891.667 50.011 926.159 50.011C962.598 50.011 983.739 70.595 983.739 105.643V200.218H960.373ZM889.164 157.66C889.164 172.959 900.568 182.972 918.649 182.972C942.293 182.972 957.035 168.23 957.035 145.699V133.738C946.187 132.347 938.398 132.069 931.166 132.069C903.072 132.069 889.164 140.414 889.164 157.66Z" fill="#E7F3F3"/>
<path d="M772.233 200.218H744.139V0.498169H772.233V118.717L835.376 52.7926H868.477L800.327 124.28L874.875 200.218H838.714L772.233 130.4V200.218Z" fill="#E7F3F3"/>
<path d="M686.58 124.837V200.218H658.485V52.7927H684.633V83.9468C694.925 63.641 717.178 50.8456 741.378 50.8456V80.0526C709.667 78.3836 686.58 92.2917 686.58 124.837Z" fill="#E7F3F3"/>
<path d="M617.028 200.218V177.409C607.849 193.821 591.437 203 569.74 203C539.143 203 519.115 185.476 519.115 158.494C519.115 129.565 542.202 114.545 586.152 114.545C594.775 114.545 601.729 114.823 613.69 116.214V105.365C613.69 84.2249 602.285 72.264 582.814 72.264C562.23 72.264 549.713 84.5031 548.878 105.087H523.287C524.678 71.9858 548.322 50.011 582.814 50.011C619.253 50.011 640.393 70.595 640.393 105.643V200.218H617.028ZM545.819 157.66C545.819 172.959 557.223 182.972 575.304 182.972C598.947 182.972 613.69 168.23 613.69 145.699V133.738C602.842 132.347 595.053 132.069 587.821 132.069C559.727 132.069 545.819 140.414 545.819 157.66Z" fill="#E7F3F3"/>
<path d="M321.047 200.218H292.953V52.7927H319.1V77.2709C329.114 60.303 344.969 50.011 365.275 50.011C386.971 50.011 403.383 61.1375 410.059 80.6088C420.351 61.6938 437.318 50.011 459.85 50.011C490.169 50.011 509.641 69.7605 509.641 104.809V200.218H481.546V113.71C481.546 89.2319 470.698 74.7674 450.114 74.7674C430.921 74.7674 415.344 90.9008 415.344 115.657V200.218H387.249V113.71C387.249 89.2319 376.401 74.7674 355.817 74.7674C336.346 74.7674 321.047 90.9008 321.047 115.657V200.218Z" fill="#E7F3F3"/>
<path d="M215.239 203C172.68 203 144.03 172.124 144.03 125.671C144.03 81.9996 173.793 50.011 214.405 50.011C258.354 50.011 287.561 85.6157 282.554 133.46H172.68C174.906 163.501 189.926 181.025 214.683 181.025C235.545 181.025 250.009 169.621 254.738 150.427H282.554C275.322 183.251 250.009 203 215.239 203ZM213.848 71.1513C191.317 71.1513 176.018 87.2847 172.959 114.823H252.791C251.4 87.5629 236.658 71.1513 213.848 71.1513Z" fill="#E7F3F3"/>
<path d="M30.5978 200.218H0V0.498108H74.5473C120.444 0.498108 147.982 23.0292 147.982 62.8064C147.982 91.457 129.902 113.432 99.5819 120.664L153.823 200.218H117.106L67.3151 125.115H30.5978V200.218ZM30.5978 26.089V99.5237H72.6002C100.973 99.5237 117.106 87.0064 117.106 62.8064C117.106 38.8844 100.973 26.089 72.6002 26.089H30.5978Z" fill="#E7F3F3"/>
</svg>
