<svg width="92" height="92" viewBox="0 0 92 92" fill="none" xmlns="http://www.w3.org/2000/svg">
<rect width="92" height="92" rx="46" fill="white"/>
<path d="M47.1343 19.1118H27.9286V72.8883H47.1343V56.6014C47.5481 56.5896 47.9566 56.5739 48.3586 56.5529C53.5192 56.3028 57.7657 55.4281 61.1179 53.9118C67.5081 51.0205 70.6429 45.7932 70.6429 38.0871C70.6429 19.8805 53.5113 19.1118 47.1343 19.1118ZM40.3409 46.6024L39.5892 42.9451L37.6015 43.2948L40.646 40.9521L40.3409 46.6024ZM49.3957 44.8347L48.8706 39.479L47.3307 40.0041L50.0609 37.38L49.3957 44.8347ZM56.4039 43.1036L55.5986 40.6863L54.5065 40.74L56.5715 38.6043L56.4039 43.1036ZM60.8626 41.1132C60.8547 41.1669 60.8456 41.2193 60.8351 41.2717L60.7238 41.1892C60.7238 41.1996 60.7238 41.2101 60.7264 41.2206L60.6806 41.1865L56.7915 38.3071L56.6671 38.2861C55.8867 38.9369 55.1586 39.6833 54.4083 40.3786L54.2394 40.4493L54.1425 40.3655L54.1307 40.3707L50.1906 37.0146C49.0579 37.8566 48.0784 38.8937 46.9876 39.792C46.4861 39.9177 45.9231 39.7736 45.4071 39.8679L43.0252 41.8373C42.9323 41.8622 42.762 41.726 42.6665 41.671C42.1322 41.3555 41.4146 40.7191 40.8856 40.5004C40.8201 40.4716 40.7678 40.4349 40.697 40.486L37.5229 42.8443V28.4076H48.1007C51.6139 28.4076 61.0485 28.8306 61.0485 38.8583C61.0485 39.6584 60.987 40.4113 60.8626 41.1132Z" fill="#131A1B"/>
</svg>
