<svg width="91" height="45" viewBox="0 0 91 45" fill="none" xmlns="http://www.w3.org/2000/svg">
<rect width="91" height="45" rx="10" fill="white"/>
<g clip-path="url(#clip0_3516_808)">
<path d="M44.2408 7.005H33V38.005H44.2408V28.6162C44.483 28.6094 44.7221 28.6004 44.9574 28.5883C47.9778 28.4441 50.4632 27.9399 52.4252 27.0658C56.1652 25.3991 58 22.3857 58 17.9435C58 7.4481 47.9732 7.005 44.2408 7.005ZM40.2647 22.8522L39.8248 20.7439L38.6614 20.9455L40.4433 19.5951L40.2647 22.8522ZM45.5644 21.8332L45.257 18.7459L44.3558 19.0486L45.9537 17.5359L45.5644 21.8332ZM49.6662 20.8353L49.1948 19.4418L48.5556 19.4728L49.7643 18.2416L49.6662 20.8353ZM52.2757 19.6879C52.2712 19.7189 52.2658 19.7491 52.2597 19.7793L52.1945 19.7317C52.1945 19.7377 52.1945 19.7438 52.196 19.7498L52.1692 19.7302L49.893 18.0703L49.8202 18.0582C49.3634 18.4334 48.9373 18.8636 48.4982 19.2644L48.3993 19.3052L48.3426 19.2569L48.3357 19.2599L46.0296 17.3253C45.3666 17.8106 44.7934 18.4085 44.155 18.9263C43.8614 18.9987 43.5319 18.9157 43.2299 18.9701L41.8358 20.1053C41.7814 20.1197 41.6818 20.0412 41.6258 20.0095C41.3132 19.8276 40.8932 19.4607 40.5835 19.3346C40.5452 19.318 40.5146 19.2969 40.4732 19.3263L38.6154 20.6858V12.3637H44.8064C46.8627 12.3637 52.3846 12.6075 52.3846 18.3881C52.3846 18.8493 52.3486 19.2833 52.2757 19.6879Z" fill="#131A1B"/>
</g>
<defs>
<clipPath id="clip0_3516_808">
<rect width="25" height="31" fill="white" transform="translate(33 7.005)"/>
</clipPath>
</defs>
</svg>
