<svg width="43" height="54" viewBox="0 0 43 54" fill="none" xmlns="http://www.w3.org/2000/svg">
<path d="M19.2057 0H0V53.7765H19.2057V37.4896C19.6195 37.4778 20.0281 37.4621 20.4301 37.4411C25.5906 37.191 29.8371 36.3163 33.1893 34.8C39.5795 31.9087 42.7143 26.6814 42.7143 18.9753C42.7143 0.768649 25.5827 0 19.2057 0ZM12.4123 27.4906L11.6607 23.8333L9.67291 24.1829L12.7174 21.8403L12.4123 27.4906ZM21.4671 25.7229L20.942 20.3672L19.4021 20.8923L22.1323 18.2681L21.4671 25.7229ZM28.4753 23.9918L27.67 21.5745L26.5779 21.6282L28.6429 19.4925L28.4753 23.9918ZM32.934 22.0014C32.9261 22.0551 32.917 22.1075 32.9065 22.1598L32.7952 22.0773C32.7952 22.0878 32.7952 22.0983 32.7978 22.1088L32.752 22.0747L28.8629 19.1952L28.7385 19.1743C27.9581 19.8251 27.23 20.5715 26.4797 21.2668L26.3108 21.3375L26.2139 21.2537L26.2021 21.2589L22.262 17.9028C21.1293 18.7448 20.1498 19.7819 19.0591 20.6802C18.5575 20.8059 17.9945 20.6618 17.4785 20.7561L15.0967 22.7255C15.0037 22.7504 14.8335 22.6142 14.7379 22.5592C14.2036 22.2436 13.486 21.6072 12.957 21.3886C12.8915 21.3598 12.8392 21.3231 12.7685 21.3742L9.59435 23.7325V9.29579H20.1721C23.6853 9.29579 33.1199 9.71874 33.1199 19.7465C33.1199 20.5466 33.0584 21.2995 32.934 22.0014Z" fill="#131A1B"/>
</svg>
